<svg id="Layer_1" data-name="Layer 1" xmlns="http://www.w3.org/2000/svg" viewBox="0 0 231 133.2"><defs><style>.cls-1{font-size:120px;}.cls-1,.cls-2,.cls-6{fill:#fafafa;}.cls-1,.cls-2{font-family:Oranienbaum-Regular, Oranienbaum;}.cls-2{font-size:60px;opacity:0.73;}.cls-3{letter-spacing:-0.01em;}.cls-4{opacity:0.96;}.cls-5{fill:none;stroke:#fafafa;stroke-miterlimit:10;stroke-width:3px;}</style></defs><title>logo1svg</title><text class="cls-1" transform="translate(0 102)">N</text><text class="cls-2" transform="translate(66.16 103.44)">s<tspan class="cls-3" x="24.3" y="0">t</tspan><tspan x="45" y="0">o</tspan><tspan class="cls-3" x="73.2" y="0">c</tspan><tspan x="98.4" y="0">ks</tspan></text><g class="cls-4"><path class="cls-5" d="M841.5,462.5l-12-15-.57-.71c-1.88,1.76-22,20.79-22,20.79l-.4.39c-2.75-3.23-15.3-18-18.29-21.53l-18.39,18.05-34.8-37.15" transform="translate(-678 -406.92)"/><path class="cls-5" d="M856.11,450.67l-15,13.52Z" transform="translate(-678 -406.92)"/></g><line class="cls-5" x1="181.61" y1="40.57" x2="177.32" y2="44.39"/><path class="cls-6" d="M865.29,442.44a38,38,0,0,1-12,2.68l5.61,3,2.36,5.91A38,38,0,0,1,865.29,442.44Z" transform="translate(-678 -406.92)"/></svg>