<svg id="Layer_1" data-name="Layer 1" xmlns="http://www.w3.org/2000/svg" viewBox="0 0 229.78 106.88"><defs><style>.cls-1{opacity:0.96;}.cls-2{fill:none;stroke:#fafafa;stroke-miterlimit:10;stroke-width:3px;}.cls-10,.cls-3{fill:#fafafa;}.cls-4{isolation:isolate;}.cls-5{fill:#fafafa;}.cls-6{fill:#2e0003;}.cls-7{fill:#3f0003;}.cls-8{fill:#fafafa;}.cls-9{fill:#fafafa;}.cls-10{font-size:60px;font-family:Oranienbaum-Regular, Oranienbaum;opacity:0.73;}.cls-11{letter-spacing:-0.01em;}</style></defs><title>logo2svg</title><g class="cls-1"><path class="cls-2" d="M841.5,462.5l-12-15-.57-.71c-1.88,1.76-22,20.79-22,20.79l-.4.39c-2.75-3.23-15.3-18-18.29-21.53l-18.39,18.05-34.8-37.15" transform="translate(-679.22 -419.08)"/><path class="cls-2" d="M856.11,450.67l-15,13.52Z" transform="translate(-679.22 -419.08)"/></g><line class="cls-2" x1="180.39" y1="28.41" x2="176.1" y2="32.23"/><path class="cls-3" d="M865.29,442.44a38,38,0,0,1-12,2.68l5.61,3,2.36,5.91A38,38,0,0,1,865.29,442.44Z" transform="translate(-679.22 -419.08)"/><g class="cls-4"><polygon class="cls-5" points="22.76 90.41 9.08 82.97 16.02 84.87 29.7 92.31 22.76 90.41"/><polygon class="cls-6" points="58.57 69.24 44.9 61.8 45 5.31 58.68 12.75 58.57 69.24"/><polygon class="cls-6" points="13.68 95.72 0 88.28 0 87.12 13.68 94.56 13.68 95.72"/><polygon class="cls-7" points="13.68 94.56 0 87.12 6.95 83.27 20.62 90.71 13.68 94.56"/><polygon class="cls-6" points="51.74 10.85 38.06 3.41 38.06 2.25 51.74 9.69 51.74 10.85"/><polygon class="cls-8" points="51.74 9.69 38.06 2.25 54.08 0 67.76 7.44 51.74 9.69"/><polygon class="cls-6" points="59.06 90.49 45.38 83.05 9.21 16.11 22.88 23.55 59.06 90.49"/><polygon class="cls-6" points="20.62 90.71 6.95 83.27 7.08 10.06 20.76 17.5 20.62 90.71"/><polygon class="cls-6" points="13.82 16.18 0.15 8.74 0.15 7.58 13.83 15.02 13.82 16.18"/><polygon class="cls-9" points="67.76 7.44 67.76 8.6 60.81 12.45 60.66 90.27 59.06 90.49 22.88 23.55 22.76 90.41 29.7 92.31 29.7 93.47 13.68 95.72 13.68 94.56 20.62 90.71 20.76 17.5 13.82 16.18 13.83 15.02 28.25 12.99 58.57 69.24 58.68 12.75 51.74 10.85 51.74 9.69 67.76 7.44"/><polygon class="cls-8" points="13.83 15.02 0.15 7.58 14.57 5.55 28.25 12.99 13.83 15.02"/></g><text class="cls-10" transform="translate(64.94 91.28)">s<tspan class="cls-11" x="24.3" y="0">t</tspan><tspan x="45" y="0">o</tspan><tspan class="cls-11" x="73.2" y="0">c</tspan><tspan x="98.4" y="0">ks</tspan></text></svg>